<svg width="25" height="23" viewBox="0 0 25 23" fill="none" xmlns="http://www.w3.org/2000/svg">
<path d="M12.7326 16.0618C14.0293 16.0618 15.2728 15.5702 16.1896 14.695C17.1065 13.8198 17.6215 12.6329 17.6215 11.3952C17.6215 10.1575 17.1065 8.97052 16.1896 8.09535C15.2728 7.22018 14.0293 6.72852 12.7326 6.72852C11.436 6.72852 10.1925 7.22018 9.27567 8.09535C8.35883 8.97052 7.84375 10.1575 7.84375 11.3952C7.84375 12.6329 8.35883 13.8198 9.27567 14.695C10.1925 15.5702 11.436 16.0618 12.7326 16.0618Z" stroke="black" stroke-width="1.64025" stroke-linecap="round" stroke-linejoin="round"/>
<path d="M1.73438 16.0612V6.72786C1.73438 5.18077 2.37822 3.69704 3.52428 2.60307C4.67033 1.50911 6.22472 0.894531 7.84549 0.894531H17.6233C19.244 0.894531 20.7984 1.50911 21.9445 2.60307C23.0905 3.69704 23.7344 5.18077 23.7344 6.72786V16.0612C23.7344 17.6083 23.0905 19.092 21.9445 20.186C20.7984 21.2799 19.244 21.8945 17.6233 21.8945H7.84549C6.22472 21.8945 4.67033 21.2799 3.52428 20.186C2.37822 19.092 1.73438 17.6083 1.73438 16.0612Z" stroke="black" stroke-width="1.64025"/>
<path d="M19.4609 4.99039L19.4735 4.97656" stroke="black" stroke-width="1.64025" stroke-linecap="round" stroke-linejoin="round"/>
</svg>
