<svg width="14px" height="11px" viewBox="0 0 14 11" fill="none" xmlns="http://www.w3.org/2000/svg">
<g clip-path="url(#clip0_1012_144)">
<path d="M5.84329 0V0.285053L4.33181 0.630462L4.09751 0.684273L4.15255 0.913334L4.89043 3.99729L1.58186 4.75428L1.34755 4.80809L1.40259 5.03715L2.24387 8.55087L2.29817 8.7792L2.53248 8.72612L5.84105 7.96913L5.84329 7.97713V11H0.320312V0H5.84329Z" fill="#284CCB"/>
<path d="M8.14304 0L8.93597 3.31374L12.4789 2.50294L13.3201 6.01666L9.77725 6.82673L10.5709 10.1405L6.81381 11L6.02088 7.68626L2.478 8.49706L1.63672 4.98334L5.1796 4.17254L4.38593 0.859523L8.14304 0Z" fill="#C126CE"/>
</g>
<defs>
<clipPath id="clip0_1012_144">
<rect width="13" height="11" fill="white" transform="translate(0.320312)"/>
</clipPath>
</defs>
</svg>
