<svg width="96" height="83" viewBox="0 0 96 83" fill="inherit" xmlns="http://www.w3.org/2000/svg">
<g clip-path="url(#clip0_1012_161)">
<path d="M40.906 0.732422V2.84848L29.9307 5.4192L28.2305 5.81842L28.6284 7.52014L33.9896 30.45L9.9661 36.0773L8.26596 36.4755L8.66381 38.1783L14.7704 64.2978L15.1683 66.0005L16.8694 65.6023L40.8919 59.975L40.906 60.0345V82.5066H0.804688V0.732422H40.906Z" fill="inherit"/>
<path d="M57.6056 0.732422L63.3647 25.365L89.0884 19.3394L95.196 45.46L69.4713 51.4845L75.2315 76.1171L47.9537 82.5066L42.1946 57.874L16.4709 63.8996L10.3633 37.7801L36.087 31.7545L30.3278 7.12193L57.6056 0.732422Z" fill="inherit"/>
</g>
<defs>
<clipPath id="clip0_1012_161">
<rect width="94.392" height="81.7742" fill="inherit" transform="translate(0.804688 0.732422)"/>
</clipPath>
</defs>
</svg>
