<svg width="67" height="67" viewBox="0 0 67 67" fill="inherit" xmlns="http://www.w3.org/2000/svg">
<g clip-path="url(#clip0_1012_102)">
<path d="M48.9481 0.9375H17.7457C8.18011 0.9375 0.351562 8.9337 0.351562 18.7042V49.1707C0.351562 58.9506 8.18011 66.9375 17.7457 66.9375H48.9481C58.5137 66.9375 66.3423 58.9413 66.3423 49.1707V18.6949C66.3423 8.91506 58.5137 0.9375 48.9481 0.9375ZM60.4371 48.7284C60.4371 55.4951 55.0163 61.0277 48.3939 61.0277H18.2953C11.6729 61.0277 6.25209 55.4951 6.25209 48.7284V19.1606C6.25209 12.3939 11.6729 6.86131 18.2953 6.86131H48.3939C55.0163 6.86131 60.4371 12.3939 60.4371 19.1606V48.7284Z" fill="inherit"/>
<path d="M33.3431 16.9951C24.178 16.9951 16.75 24.5815 16.75 33.9422C16.75 43.3029 24.2013 50.8893 33.3431 50.8893C42.485 50.8893 49.9363 43.3029 49.9363 33.9422C49.9363 24.5815 42.5036 16.9951 33.3431 16.9951ZM33.3431 44.877C31.1702 44.9223 29.033 44.3194 27.2041 43.145C25.3753 41.9707 23.9377 40.2781 23.0747 38.2834C22.2118 36.2886 21.9626 34.082 22.3589 31.945C22.7553 29.808 23.7792 27.8375 25.3001 26.2849C26.821 24.7322 28.7699 23.6678 30.8983 23.2274C33.0266 22.787 35.2379 22.9906 37.2501 23.8122C39.2623 24.6337 40.9841 26.036 42.196 27.8403C43.4079 29.6445 44.0549 31.7688 44.0544 33.9422C44.0692 35.3635 43.8038 36.7738 43.2735 38.0926C42.7432 39.4113 41.9583 40.6127 40.9636 41.6281C39.969 42.6435 38.784 43.4531 37.4765 44.0106C36.169 44.568 34.7645 44.8624 33.3431 44.877Z" fill="inherit"/>
<path d="M50.8271 19.9101C52.8976 19.9101 54.576 18.1962 54.576 16.082C54.576 13.9678 52.8976 12.2539 50.8271 12.2539C48.7566 12.2539 47.0781 13.9678 47.0781 16.082C47.0781 18.1962 48.7566 19.9101 50.8271 19.9101Z" fill="inherit"/>
</g>
<defs>
<clipPath id="clip0_1012_102">
<rect width="66" height="66" fill="inherit" transform="translate(0.347656 0.9375)"/>
</clipPath>
</defs>
</svg>
