<svg width="122" height="101" viewBox="0 0 122 101" fill="inherit" xmlns="http://www.w3.org/2000/svg">
<g clip-path="url(#clip0_1012_153)">
<path d="M118.63 2.78731C113.736 5.71929 108.36 7.78963 102.743 8.90541C100.43 6.39803 97.6109 4.39392 94.4648 3.02172C91.3188 1.64951 87.9158 0.939634 84.4743 0.9375C70.663 0.9375 59.4572 12.2391 59.4572 26.1807C59.45 28.1255 59.6669 30.0649 60.1037 31.9616C50.0912 31.4233 40.3105 28.791 31.414 24.2404C22.5176 19.6897 14.71 13.3254 8.51208 5.5718C6.27934 9.44645 5.11126 13.8264 5.12292 18.2802C5.10439 22.4092 6.10885 26.4804 8.04938 30.1418C9.9899 33.8032 12.8081 36.9444 16.2601 39.2937C12.2753 39.1645 8.38226 38.0831 4.91723 36.1431V36.4515C4.85449 42.2208 6.81831 47.8344 10.4769 52.3442C14.1355 56.8539 19.2645 59.9832 24.9975 61.2034C22.8535 61.8028 20.6342 62.1013 18.4053 62.0898C16.8238 62.0945 15.2457 61.9461 13.6938 61.6466C15.2242 66.6105 18.3042 70.9745 22.4974 74.1202C26.6905 77.2658 31.7839 79.0335 37.0555 79.1724C28.2578 86.175 17.2827 89.9945 5.96531 89.9923C3.97162 89.9938 1.97962 89.878 0 89.6454C11.3826 97.0345 24.7202 100.974 38.3582 100.976C84.396 100.976 109.58 62.5137 109.58 29.1482C109.58 28.0499 109.58 26.9515 109.511 25.882C114.428 22.2917 118.653 17.8675 121.99 12.8172C117.439 14.8396 112.599 16.1652 107.64 16.7482C112.896 13.5516 116.8 8.59299 118.63 2.78731Z" fill="inherit"/>
</g>
<defs>
<clipPath id="clip0_1012_153">
<rect width="122" height="100" fill="inherit" transform="translate(0 0.9375)"/>
</clipPath>
</defs>
</svg>
