<svg width="79" height="80" viewBox="0 0 79 80" fill="inherit" xmlns="http://www.w3.org/2000/svg">
<path d="M59.25 9.07812H19.75C14.2965 9.07812 9.875 13.4997 9.875 18.9531V58.4531C9.875 63.9066 14.2965 68.3281 19.75 68.3281H59.25C64.7035 68.3281 69.125 63.9066 69.125 58.4531V18.9531C69.125 13.4997 64.7035 9.07812 59.25 9.07812ZM52.2425 52.2812C50.7378 47.5857 46.9877 43.9529 42.028 43.4592V52.2812H41.2627C27.7685 52.2812 20.0709 43.0136 19.75 27.5938H26.5107C26.7329 38.9117 31.716 43.706 35.6636 44.6948V27.5938H42.0292V37.3552C45.9274 36.9355 50.023 32.4868 51.4043 27.5938H57.77C56.7097 33.6237 52.2684 38.0711 49.1096 39.9005C52.2671 41.383 57.3256 45.2626 59.25 52.2812H52.2425Z" fill="inherit"/>
</svg>
