<svg width="14" height="14" viewBox="0 0 14 14" fill="none" xmlns="http://www.w3.org/2000/svg">
<path d="M10.0063 0.214844H3.80729C1.90687 0.214844 0.351562 1.80346 0.351562 3.74458V9.79741C0.351562 11.7404 1.90687 13.3271 3.80729 13.3271H10.0063C11.9067 13.3271 13.462 11.7385 13.462 9.79741V3.74273C13.462 1.79976 11.9067 0.214844 10.0063 0.214844ZM12.2888 9.70951C12.2888 11.0539 11.2119 12.153 9.8962 12.153H3.91646C2.60079 12.153 1.52383 11.0539 1.52383 9.70951V3.83525C1.52383 2.4909 2.60079 1.39173 3.91646 1.39173H9.8962C11.2119 1.39173 12.2888 2.4909 12.2888 3.83525V9.70951Z" fill="#D9D9D9"/>
<path d="M6.90596 3.40527C5.08511 3.40527 3.60938 4.91247 3.60938 6.77217C3.60938 8.63188 5.08974 10.1391 6.90596 10.1391C8.72218 10.1391 10.2025 8.63188 10.2025 6.77217C10.2025 4.91247 8.72588 3.40527 6.90596 3.40527ZM6.90596 8.9446C6.47425 8.95361 6.04965 8.83382 5.68631 8.60051C5.32296 8.3672 5.03736 8.03094 4.86591 7.63464C4.69447 7.23833 4.64496 6.79994 4.72371 6.37538C4.80245 5.95082 5.00588 5.55935 5.30804 5.25088C5.6102 4.94242 5.99739 4.73095 6.42024 4.64345C6.84308 4.55596 7.2824 4.5964 7.68216 4.75963C8.08192 4.92285 8.424 5.20145 8.66477 5.55989C8.90553 5.91834 9.03407 6.34037 9.03398 6.77217C9.03691 7.05455 8.98419 7.33473 8.87883 7.59673C8.77347 7.85873 8.61753 8.09741 8.41992 8.29915C8.22232 8.50088 7.98691 8.66172 7.72714 8.77247C7.46737 8.88321 7.18833 8.9417 6.90596 8.9446Z" fill="#D9D9D9"/>
<path d="M10.3815 3.98396C10.7929 3.98396 11.1263 3.64346 11.1263 3.22343C11.1263 2.80339 10.7929 2.46289 10.3815 2.46289C9.97018 2.46289 9.63672 2.80339 9.63672 3.22343C9.63672 3.64346 9.97018 3.98396 10.3815 3.98396Z" fill="#D9D9D9"/>
</svg>
