<svg width="19" height="19" viewBox="0 0 19 19" fill="none" xmlns="http://www.w3.org/2000/svg">
<path d="M14.1758 2.20117H5.17578C3.93322 2.20117 2.92578 3.20861 2.92578 4.45117V13.4512C2.92578 14.6937 3.93322 15.7012 5.17578 15.7012H14.1758C15.4183 15.7012 16.4258 14.6937 16.4258 13.4512V4.45117C16.4258 3.20861 15.4183 2.20117 14.1758 2.20117ZM12.5791 12.0449C12.2363 10.975 11.3818 10.1473 10.2518 10.0348V12.0449H10.0774C7.00278 12.0449 5.24891 9.9333 5.17578 6.41992H6.71619C6.76681 8.9987 7.90222 10.0911 8.80166 10.3164V6.41992H10.2521V8.64405C11.1403 8.54842 12.0734 7.5348 12.3882 6.41992H13.8386C13.597 7.79383 12.585 8.80717 11.8653 9.22398C12.5848 9.56177 13.7373 10.4457 14.1758 12.0449H12.5791Z" fill="#D9D9D9"/>
</svg>
