<svg width="17" height="17" viewBox="0 0 17 17" fill="none" xmlns="http://www.w3.org/2000/svg">
<g clip-path="url(#clip0_1012_245)">
<path d="M15.1394 8.0026C15.1406 8.0026 15.1416 8.0026 15.1429 8.0026C15.2322 8.0026 15.3173 7.96516 15.3778 7.89956C15.4392 7.833 15.4696 7.74372 15.4616 7.65348C15.1403 4.11972 12.3426 1.321 8.80849 0.999078C8.71889 0.992038 8.62865 1.02116 8.56209 1.08292C8.49553 1.14436 8.45841 1.23108 8.45937 1.32164C8.51505 6.01796 9.13457 7.937 15.1394 8.0026ZM15.1394 8.65156C9.13457 8.71716 8.51537 10.6362 8.45969 15.3325C8.45873 15.4231 8.49585 15.5098 8.56241 15.5712C8.62193 15.626 8.69969 15.6564 8.77969 15.6564C8.78929 15.6564 8.79921 15.656 8.80881 15.6551C12.3429 15.3332 15.1406 12.5348 15.4616 9.00068C15.4696 8.91044 15.4395 8.82116 15.3778 8.7546C15.316 8.68804 15.2299 8.65508 15.1394 8.65156ZM7.43665 1.00068C3.91377 1.33188 1.12497 4.12996 0.805289 7.65412C0.797289 7.74436 0.827369 7.83364 0.889129 7.9002C0.949609 7.9658 1.03505 8.00292 1.12401 8.00292C1.12529 8.00292 1.12657 8.00292 1.12785 8.00292C7.11281 7.93412 7.73073 6.01604 7.78705 1.32292C7.78801 1.23236 7.75057 1.14532 7.68401 1.08388C7.61681 1.02244 7.52689 0.992358 7.43665 1.00068ZM1.12753 8.65124C1.02801 8.64004 0.949929 8.6874 0.888809 8.75396C0.827369 8.82052 0.796969 8.9098 0.804969 9.00004C1.12465 12.5242 3.91377 15.3223 7.43665 15.6535C7.44657 15.6544 7.45681 15.6548 7.46673 15.6548C7.54673 15.6548 7.62417 15.6247 7.68369 15.57C7.75025 15.5085 7.78769 15.4215 7.78673 15.3309C7.73041 10.6381 7.11281 8.72004 1.12753 8.65124Z" fill="#D9D9D9"/>
</g>
<defs>
<clipPath id="clip0_1012_245">
<rect width="16" height="16" fill="white" transform="translate(0.132812 0.327148)"/>
</clipPath>
</defs>
</svg>
